<mxfile host="app.diagrams.net" modified="2022-11-11T16:42:10.875Z" agent="5.0 (Windows NT 10.0; Win64; x64) AppleWebKit/537.36 (KHTML, like Gecko) Chrome/107.0.0.0 Safari/537.36" etag="pEf1V820sNSbRM_CcZZd" version="20.5.3" type="github">
  <diagram id="GexXHqTW5PZMKcK-__7U" name="Page-1">
    <mxGraphModel dx="2062" dy="1154" grid="1" gridSize="10" guides="1" tooltips="1" connect="1" arrows="1" fold="1" page="1" pageScale="1" pageWidth="3510" pageHeight="830" math="0" shadow="0">
      <root>
        <mxCell id="0" />
        <mxCell id="1" parent="0" />
        <mxCell id="3D_DBwJ0EuOuNHN9H8HQ-35" value="Content Catalogue (CRUD)" style="rounded=0;whiteSpace=wrap;html=1;fillColor=#f5f5f5;fontColor=#333333;strokeColor=#666666;verticalAlign=top;fontStyle=1;fontSize=14;" parent="1" vertex="1">
          <mxGeometry x="720" y="160" width="480" height="560" as="geometry" />
        </mxCell>
        <mxCell id="3D_DBwJ0EuOuNHN9H8HQ-34" value="My Content&lt;br&gt;" style="rounded=0;whiteSpace=wrap;html=1;fillColor=#f5f5f5;fontColor=#333333;strokeColor=#666666;verticalAlign=top;fontStyle=1;fontSize=14;" parent="1" vertex="1">
          <mxGeometry x="1360" y="160" width="540" height="560" as="geometry" />
        </mxCell>
        <mxCell id="3D_DBwJ0EuOuNHN9H8HQ-33" value="Content Creation" style="rounded=0;whiteSpace=wrap;html=1;fillColor=#f5f5f5;fontColor=#333333;strokeColor=#666666;verticalAlign=top;fontStyle=1;fontSize=14;" parent="1" vertex="1">
          <mxGeometry x="40" y="160" width="520" height="560" as="geometry" />
        </mxCell>
        <mxCell id="3D_DBwJ0EuOuNHN9H8HQ-55" style="edgeStyle=orthogonalEdgeStyle;rounded=0;orthogonalLoop=1;jettySize=auto;html=1;fontSize=14;entryX=0.004;entryY=0.584;entryDx=0;entryDy=0;entryPerimeter=0;exitX=0.5;exitY=1;exitDx=0;exitDy=0;" parent="1" source="3D_DBwJ0EuOuNHN9H8HQ-2" target="3D_DBwJ0EuOuNHN9H8HQ-3" edge="1">
          <mxGeometry relative="1" as="geometry">
            <Array as="points" />
          </mxGeometry>
        </mxCell>
        <mxCell id="3D_DBwJ0EuOuNHN9H8HQ-2" value="create&lt;br&gt;course" style="whiteSpace=wrap;html=1;aspect=fixed;fillColor=#ffe6cc;strokeColor=#d79b00;" parent="1" vertex="1">
          <mxGeometry x="80" y="240" width="80" height="80" as="geometry" />
        </mxCell>
        <mxCell id="3D_DBwJ0EuOuNHN9H8HQ-58" style="edgeStyle=orthogonalEdgeStyle;rounded=0;orthogonalLoop=1;jettySize=auto;html=1;entryX=0;entryY=0.5;entryDx=0;entryDy=0;fontSize=14;" parent="1" source="3D_DBwJ0EuOuNHN9H8HQ-3" target="3D_DBwJ0EuOuNHN9H8HQ-6" edge="1">
          <mxGeometry relative="1" as="geometry" />
        </mxCell>
        <mxCell id="3D_DBwJ0EuOuNHN9H8HQ-3" value="create&lt;br&gt;lesson" style="whiteSpace=wrap;html=1;aspect=fixed;fillColor=#ffe6cc;strokeColor=#d79b00;" parent="1" vertex="1">
          <mxGeometry x="190" y="360" width="80" height="80" as="geometry" />
        </mxCell>
        <mxCell id="3D_DBwJ0EuOuNHN9H8HQ-11" style="edgeStyle=orthogonalEdgeStyle;rounded=0;orthogonalLoop=1;jettySize=auto;html=1;exitX=1;exitY=0.5;exitDx=0;exitDy=0;entryX=1;entryY=0.5;entryDx=0;entryDy=0;" parent="1" source="3D_DBwJ0EuOuNHN9H8HQ-6" target="3D_DBwJ0EuOuNHN9H8HQ-6" edge="1">
          <mxGeometry relative="1" as="geometry" />
        </mxCell>
        <mxCell id="3D_DBwJ0EuOuNHN9H8HQ-60" style="edgeStyle=orthogonalEdgeStyle;rounded=0;orthogonalLoop=1;jettySize=auto;html=1;entryX=-0.012;entryY=0.563;entryDx=0;entryDy=0;entryPerimeter=0;fontSize=14;" parent="1" source="3D_DBwJ0EuOuNHN9H8HQ-6" target="3D_DBwJ0EuOuNHN9H8HQ-45" edge="1">
          <mxGeometry relative="1" as="geometry" />
        </mxCell>
        <mxCell id="3D_DBwJ0EuOuNHN9H8HQ-6" value="create &lt;br&gt;item" style="whiteSpace=wrap;html=1;aspect=fixed;fillColor=#ffe6cc;strokeColor=#d79b00;" parent="1" vertex="1">
          <mxGeometry x="320" y="360" width="80" height="80" as="geometry" />
        </mxCell>
        <mxCell id="3D_DBwJ0EuOuNHN9H8HQ-7" value="Course&lt;br&gt;Published&lt;br&gt;Event" style="whiteSpace=wrap;html=1;aspect=fixed;fillColor=#ffe6cc;strokeColor=#d79b00;" parent="1" vertex="1">
          <mxGeometry x="600" y="240" width="80" height="80" as="geometry" />
        </mxCell>
        <mxCell id="3D_DBwJ0EuOuNHN9H8HQ-62" style="edgeStyle=orthogonalEdgeStyle;rounded=0;orthogonalLoop=1;jettySize=auto;html=1;entryX=0;entryY=0.5;entryDx=0;entryDy=0;fontSize=14;" parent="1" source="3D_DBwJ0EuOuNHN9H8HQ-15" target="3D_DBwJ0EuOuNHN9H8HQ-16" edge="1">
          <mxGeometry relative="1" as="geometry" />
        </mxCell>
        <mxCell id="3D_DBwJ0EuOuNHN9H8HQ-15" value="correct &lt;br&gt;item" style="whiteSpace=wrap;html=1;aspect=fixed;fillColor=#ffe6cc;strokeColor=#d79b00;" parent="1" vertex="1">
          <mxGeometry x="440" y="360" width="80" height="80" as="geometry" />
        </mxCell>
        <mxCell id="3D_DBwJ0EuOuNHN9H8HQ-16" value="Item&lt;br&gt;Correction&lt;br&gt;Event" style="whiteSpace=wrap;html=1;aspect=fixed;fillColor=#ffe6cc;strokeColor=#d79b00;" parent="1" vertex="1">
          <mxGeometry x="600" y="360" width="80" height="80" as="geometry" />
        </mxCell>
        <mxCell id="3D_DBwJ0EuOuNHN9H8HQ-43" value="" style="rounded=0;whiteSpace=wrap;html=1;fontSize=14;" parent="1" vertex="1">
          <mxGeometry x="1470" y="10" width="120" height="60" as="geometry" />
        </mxCell>
        <mxCell id="3D_DBwJ0EuOuNHN9H8HQ-44" value="&lt;span style=&quot;font-size: 12px;&quot;&gt;the type of the lesson determins the content (e.g. question-answer pairs) for vocabulary learning&lt;/span&gt;&lt;br style=&quot;font-size: 12px;&quot;&gt;&lt;span style=&quot;font-size: 12px;&quot;&gt;---&lt;/span&gt;&lt;br style=&quot;font-size: 12px;&quot;&gt;&lt;span style=&quot;font-size: 12px;&quot;&gt;other lesson types could contain&amp;nbsp;&lt;/span&gt;" style="rounded=0;whiteSpace=wrap;html=1;fontSize=14;" parent="1" vertex="1">
          <mxGeometry x="110" y="750" width="420" height="100" as="geometry" />
        </mxCell>
        <mxCell id="3D_DBwJ0EuOuNHN9H8HQ-61" style="edgeStyle=orthogonalEdgeStyle;rounded=0;orthogonalLoop=1;jettySize=auto;html=1;entryX=0.5;entryY=0;entryDx=0;entryDy=0;fontSize=14;" parent="1" source="3D_DBwJ0EuOuNHN9H8HQ-45" target="3D_DBwJ0EuOuNHN9H8HQ-15" edge="1">
          <mxGeometry relative="1" as="geometry" />
        </mxCell>
        <mxCell id="3D_DBwJ0EuOuNHN9H8HQ-45" value="publish&lt;br&gt;course" style="whiteSpace=wrap;html=1;aspect=fixed;fillColor=#ffe6cc;strokeColor=#d79b00;" parent="1" vertex="1">
          <mxGeometry x="440" y="240" width="80" height="80" as="geometry" />
        </mxCell>
        <mxCell id="3D_DBwJ0EuOuNHN9H8HQ-48" value="publish&lt;br&gt;update" style="whiteSpace=wrap;html=1;aspect=fixed;fillColor=#ffe6cc;strokeColor=#d79b00;" parent="1" vertex="1">
          <mxGeometry x="80" y="480" width="80" height="80" as="geometry" />
        </mxCell>
        <mxCell id="3D_DBwJ0EuOuNHN9H8HQ-49" value="Course Uptdated&lt;br&gt;Event" style="whiteSpace=wrap;html=1;aspect=fixed;fillColor=#ffe6cc;strokeColor=#d79b00;" parent="1" vertex="1">
          <mxGeometry x="600" y="480" width="80" height="80" as="geometry" />
        </mxCell>
        <mxCell id="3D_DBwJ0EuOuNHN9H8HQ-50" value="withdraw&lt;br&gt;course" style="whiteSpace=wrap;html=1;aspect=fixed;fillColor=#ffe6cc;strokeColor=#d79b00;" parent="1" vertex="1">
          <mxGeometry x="80" y="600" width="80" height="80" as="geometry" />
        </mxCell>
        <mxCell id="3D_DBwJ0EuOuNHN9H8HQ-51" value="Course&lt;br&gt;Withdrawl&lt;br&gt;Event" style="whiteSpace=wrap;html=1;aspect=fixed;fillColor=#ffe6cc;strokeColor=#d79b00;" parent="1" vertex="1">
          <mxGeometry x="600" y="600" width="80" height="80" as="geometry" />
        </mxCell>
        <mxCell id="3D_DBwJ0EuOuNHN9H8HQ-64" value="Create" style="whiteSpace=wrap;html=1;aspect=fixed;fillColor=#ffe6cc;strokeColor=#d79b00;" parent="1" vertex="1">
          <mxGeometry x="780" y="240" width="80" height="80" as="geometry" />
        </mxCell>
        <mxCell id="3D_DBwJ0EuOuNHN9H8HQ-65" value="Update" style="whiteSpace=wrap;html=1;aspect=fixed;fillColor=#ffe6cc;strokeColor=#d79b00;" parent="1" vertex="1">
          <mxGeometry x="780" y="360" width="80" height="80" as="geometry" />
        </mxCell>
        <mxCell id="3D_DBwJ0EuOuNHN9H8HQ-66" value="Create&lt;br&gt;New&lt;br&gt;Version" style="whiteSpace=wrap;html=1;aspect=fixed;fillColor=#ffe6cc;strokeColor=#d79b00;" parent="1" vertex="1">
          <mxGeometry x="780" y="480" width="80" height="80" as="geometry" />
        </mxCell>
        <mxCell id="3D_DBwJ0EuOuNHN9H8HQ-67" value="Delete&lt;br&gt;(or mark vor Deletion)" style="whiteSpace=wrap;html=1;aspect=fixed;fillColor=#ffe6cc;strokeColor=#d79b00;" parent="1" vertex="1">
          <mxGeometry x="780" y="600" width="80" height="80" as="geometry" />
        </mxCell>
        <mxCell id="3D_DBwJ0EuOuNHN9H8HQ-68" value="Register&lt;br&gt;for&lt;br&gt;Course" style="whiteSpace=wrap;html=1;aspect=fixed;fillColor=#ffe6cc;strokeColor=#d79b00;" parent="1" vertex="1">
          <mxGeometry x="1400" y="240" width="80" height="80" as="geometry" />
        </mxCell>
        <mxCell id="3D_DBwJ0EuOuNHN9H8HQ-69" value="Browse Your&lt;br&gt;Courses" style="whiteSpace=wrap;html=1;aspect=fixed;fillColor=#ffe6cc;strokeColor=#d79b00;" parent="1" vertex="1">
          <mxGeometry x="1400" y="360" width="80" height="80" as="geometry" />
        </mxCell>
        <mxCell id="3D_DBwJ0EuOuNHN9H8HQ-70" value="Schedule&lt;br&gt;Course for Learning" style="whiteSpace=wrap;html=1;aspect=fixed;fillColor=#ffe6cc;strokeColor=#d79b00;" parent="1" vertex="1">
          <mxGeometry x="1400" y="480" width="80" height="80" as="geometry" />
        </mxCell>
        <mxCell id="3D_DBwJ0EuOuNHN9H8HQ-71" value="Update a Course" style="whiteSpace=wrap;html=1;aspect=fixed;fillColor=#ffe6cc;strokeColor=#d79b00;" parent="1" vertex="1">
          <mxGeometry x="1400" y="600" width="80" height="80" as="geometry" />
        </mxCell>
        <mxCell id="3D_DBwJ0EuOuNHN9H8HQ-72" value="Create" style="whiteSpace=wrap;html=1;aspect=fixed;fillColor=#ffe6cc;strokeColor=#d79b00;" parent="1" vertex="1">
          <mxGeometry x="1240" y="240" width="80" height="80" as="geometry" />
        </mxCell>
        <mxCell id="3D_DBwJ0EuOuNHN9H8HQ-73" value="Update" style="whiteSpace=wrap;html=1;aspect=fixed;fillColor=#ffe6cc;strokeColor=#d79b00;" parent="1" vertex="1">
          <mxGeometry x="1240" y="360" width="80" height="80" as="geometry" />
        </mxCell>
        <mxCell id="3D_DBwJ0EuOuNHN9H8HQ-74" value="Update" style="whiteSpace=wrap;html=1;aspect=fixed;fillColor=#ffe6cc;strokeColor=#d79b00;" parent="1" vertex="1">
          <mxGeometry x="1240" y="480" width="80" height="80" as="geometry" />
        </mxCell>
        <mxCell id="3D_DBwJ0EuOuNHN9H8HQ-75" value="Delete&lt;br&gt;(or mark vor Deletion)" style="whiteSpace=wrap;html=1;aspect=fixed;fillColor=#ffe6cc;strokeColor=#d79b00;" parent="1" vertex="1">
          <mxGeometry x="1240" y="600" width="80" height="80" as="geometry" />
        </mxCell>
      </root>
    </mxGraphModel>
  </diagram>
</mxfile>
